<svg width="194" height="33" viewBox="0 0 194 33" fill="none" xmlns="http://www.w3.org/2000/svg">
<path d="M185.828 29.3281C184.161 29.3281 182.729 28.9635 181.531 28.2344C180.333 27.5052 179.417 26.4948 178.781 25.2031C178.146 23.901 177.828 22.4062 177.828 20.7188V20.3906C177.828 18.7135 178.146 17.2292 178.781 15.9375C179.417 14.6354 180.328 13.6198 181.516 12.8906C182.714 12.151 184.141 11.7812 185.797 11.7812C187.474 11.7812 188.906 12.151 190.094 12.8906C191.281 13.6198 192.193 14.6302 192.828 15.9219C193.464 17.2135 193.781 18.7031 193.781 20.3906V20.7188C193.781 22.4062 193.464 23.901 192.828 25.2031C192.193 26.4948 191.281 27.5052 190.094 28.2344C188.906 28.9635 187.484 29.3281 185.828 29.3281ZM185.828 25.8281C186.62 25.8281 187.266 25.6146 187.766 25.1875C188.266 24.7604 188.635 24.1667 188.875 23.4062C189.115 22.6354 189.234 21.7396 189.234 20.7188V20.3906C189.234 19.3906 189.115 18.5104 188.875 17.75C188.635 16.9792 188.26 16.3802 187.75 15.9531C187.25 15.5156 186.599 15.2969 185.797 15.2969C185.016 15.2969 184.37 15.5156 183.859 15.9531C183.349 16.3802 182.974 16.9792 182.734 17.75C182.505 18.5104 182.391 19.3906 182.391 20.3906V20.7188C182.391 21.7396 182.505 22.6354 182.734 23.4062C182.974 24.1771 183.349 24.776 183.859 25.2031C184.37 25.6198 185.026 25.8281 185.828 25.8281Z" fill="#E17033"/>
<path d="M167.609 29V26.2656L169.812 25.7969V7.84375L167.375 7.375V4.625H174.375V25.7969L176.578 26.2656V29H167.609Z" fill="#E17033"/>
<path d="M159.109 29.3281C157.495 29.3281 156.083 28.974 154.875 28.2656C153.667 27.5469 152.729 26.5625 152.062 25.3125C151.406 24.0625 151.078 22.6354 151.078 21.0312V20.4062C151.078 18.7292 151.391 17.2448 152.016 15.9531C152.641 14.651 153.521 13.6302 154.656 12.8906C155.802 12.151 157.151 11.7812 158.703 11.7812C160.234 11.7812 161.521 12.0833 162.562 12.6875C163.604 13.2917 164.396 14.1615 164.938 15.2969C165.479 16.4323 165.75 17.8073 165.75 19.4219V21.9062H155.812L155.781 22C155.844 22.7396 156.026 23.401 156.328 23.9844C156.641 24.5573 157.078 25.0104 157.641 25.3438C158.203 25.6667 158.885 25.8281 159.688 25.8281C160.521 25.8281 161.297 25.724 162.016 25.5156C162.745 25.2969 163.453 24.9792 164.141 24.5625L165.375 27.375C164.677 27.9375 163.797 28.4062 162.734 28.7812C161.682 29.1458 160.474 29.3281 159.109 29.3281ZM155.844 18.8906H161.484V18.4844C161.484 17.7969 161.391 17.2083 161.203 16.7188C161.026 16.2188 160.734 15.8333 160.328 15.5625C159.932 15.2917 159.417 15.1562 158.781 15.1562C158.177 15.1562 157.667 15.3177 157.25 15.6406C156.833 15.9531 156.505 16.3854 156.266 16.9375C156.036 17.4896 155.88 18.1146 155.797 18.8125L155.844 18.8906Z" fill="#E17033"/>
<path d="M121.062 29V26.2656L123.266 25.7969V15.3125L120.828 14.8438V12.0938H127.5L127.688 14.3281C128.229 13.5156 128.906 12.8906 129.719 12.4531C130.542 12.0052 131.49 11.7812 132.562 11.7812C133.646 11.7812 134.573 12.0208 135.344 12.5C136.125 12.9792 136.708 13.7031 137.094 14.6719C137.615 13.7656 138.292 13.0573 139.125 12.5469C139.958 12.0365 140.938 11.7812 142.062 11.7812C143.729 11.7812 145.042 12.349 146 13.4844C146.969 14.6198 147.453 16.349 147.453 18.6719V25.7969L149.656 26.2656V29H140.922V26.2656L142.891 25.7969V18.6562C142.891 17.4062 142.682 16.5417 142.266 16.0625C141.859 15.5729 141.266 15.3281 140.484 15.3281C139.776 15.3281 139.177 15.5312 138.688 15.9375C138.198 16.3333 137.844 16.8594 137.625 17.5156V25.7969L139.469 26.2656V29H131.234V26.2656L133.078 25.7969V18.6562C133.078 17.4375 132.87 16.5781 132.453 16.0781C132.047 15.5781 131.443 15.3281 130.641 15.3281C129.995 15.3281 129.438 15.4583 128.969 15.7188C128.5 15.9792 128.115 16.3542 127.812 16.8438V25.7969L129.781 26.2656V29H121.062Z" fill="#E17033"/>
<path d="M108.859 29.3281C107.182 29.3281 105.849 28.8802 104.859 27.9844C103.87 27.0781 103.375 25.849 103.375 24.2969C103.375 22.7031 104.021 21.4115 105.312 20.4219C106.604 19.4219 108.495 18.9219 110.984 18.9219H113.219V17.6719C113.219 16.8594 112.979 16.2031 112.5 15.7031C112.031 15.1927 111.323 14.9375 110.375 14.9375C109.885 14.9375 109.448 15 109.062 15.125C108.677 15.2396 108.323 15.4062 108 15.625L107.641 17.8594H104.359L104.297 13.4688C105.182 12.9688 106.141 12.5625 107.172 12.25C108.203 11.9375 109.354 11.7812 110.625 11.7812C112.833 11.7812 114.578 12.2969 115.859 13.3281C117.141 14.349 117.781 15.8125 117.781 17.7188V24.6875C117.781 24.9167 117.781 25.1458 117.781 25.375C117.792 25.5938 117.812 25.8073 117.844 26.0156L119.609 26.2656V29H113.953C113.839 28.7083 113.724 28.3958 113.609 28.0625C113.495 27.7292 113.411 27.3958 113.359 27.0625C112.818 27.75 112.177 28.3021 111.438 28.7188C110.708 29.125 109.849 29.3281 108.859 29.3281ZM110.078 25.9531C110.714 25.9531 111.318 25.8125 111.891 25.5312C112.464 25.2396 112.906 24.8594 113.219 24.3906V21.7188H110.969C109.969 21.7188 109.208 21.9479 108.688 22.4062C108.177 22.8646 107.922 23.4167 107.922 24.0625C107.922 24.6667 108.109 25.1354 108.484 25.4688C108.87 25.7917 109.401 25.9531 110.078 25.9531Z" fill="#E17033"/>
<path d="M90.0156 29V26.2656L92.2031 25.7969V15.3125L89.7812 14.8438V12.0938H96.4531L96.625 14.1875L96.6562 14.5625C97.0729 13.6458 97.5885 12.9531 98.2031 12.4844C98.8177 12.0156 99.5521 11.7812 100.406 11.7812C100.677 11.7812 100.974 11.8073 101.297 11.8594C101.62 11.901 101.906 11.9583 102.156 12.0312L101.672 16.2344L99.4062 16.1094C98.7604 16.0781 98.2344 16.1875 97.8281 16.4375C97.4323 16.6875 97.0781 17.0469 96.7656 17.5156V25.7969L98.9531 26.2656V29H90.0156Z" fill="#E17033"/>
<path d="M77.2969 29.3281C75.6198 29.3281 74.2865 28.8802 73.2969 27.9844C72.3073 27.0781 71.8125 25.849 71.8125 24.2969C71.8125 22.7031 72.4583 21.4115 73.75 20.4219C75.0417 19.4219 76.9323 18.9219 79.4219 18.9219H81.6562V17.6719C81.6562 16.8594 81.4167 16.2031 80.9375 15.7031C80.4688 15.1927 79.7604 14.9375 78.8125 14.9375C78.3229 14.9375 77.8854 15 77.5 15.125C77.1146 15.2396 76.7604 15.4062 76.4375 15.625L76.0781 17.8594H72.7969L72.7344 13.4688C73.6198 12.9688 74.5781 12.5625 75.6094 12.25C76.6406 11.9375 77.7917 11.7812 79.0625 11.7812C81.2708 11.7812 83.0156 12.2969 84.2969 13.3281C85.5781 14.349 86.2188 15.8125 86.2188 17.7188V24.6875C86.2188 24.9167 86.2188 25.1458 86.2188 25.375C86.2292 25.5938 86.25 25.8073 86.2812 26.0156L88.0469 26.2656V29H82.3906C82.276 28.7083 82.1615 28.3958 82.0469 28.0625C81.9323 27.7292 81.849 27.3958 81.7969 27.0625C81.2552 27.75 80.6146 28.3021 79.875 28.7188C79.1458 29.125 78.2865 29.3281 77.2969 29.3281ZM78.5156 25.9531C79.151 25.9531 79.7552 25.8125 80.3281 25.5312C80.901 25.2396 81.3438 24.8594 81.6562 24.3906V21.7188H79.4062C78.4062 21.7188 77.6458 21.9479 77.125 22.4062C76.6146 22.8646 76.3594 23.4167 76.3594 24.0625C76.3594 24.6667 76.5469 25.1354 76.9219 25.4688C77.3073 25.7917 77.8385 25.9531 78.5156 25.9531Z" fill="#E17033"/>
<path d="M61.7031 29.3281C59.4948 29.3281 57.5729 28.8698 55.9375 27.9531C54.3021 27.026 53.0365 25.7188 52.1406 24.0312C51.2552 22.3333 50.8125 20.3281 50.8125 18.0156V17.25C50.8125 15.0417 51.2396 13.0885 52.0938 11.3906C52.9583 9.68229 54.1875 8.34375 55.7812 7.375C57.375 6.40625 59.2708 5.92188 61.4688 5.92188C63.0104 5.92188 64.4531 6.14062 65.7969 6.57812C67.151 7.01562 68.3594 7.68229 69.4219 8.57812V14.0781H66.0312L65.5625 10.625C65.2188 10.375 64.8438 10.1615 64.4375 9.98438C64.0312 9.80729 63.5885 9.67188 63.1094 9.57812C62.6406 9.48438 62.1302 9.4375 61.5781 9.4375C60.2865 9.4375 59.1771 9.75521 58.25 10.3906C57.3229 11.026 56.6094 11.9271 56.1094 13.0938C55.6198 14.25 55.375 15.625 55.375 17.2188V18.0156C55.375 19.6094 55.6354 20.9896 56.1562 22.1562C56.6771 23.3229 57.4167 24.2292 58.375 24.875C59.3333 25.5104 60.4688 25.8281 61.7812 25.8281C62.4375 25.8281 63.0938 25.7552 63.75 25.6094C64.4167 25.4531 65.0208 25.2552 65.5625 25.0156L66.0312 21.8125H69.4219V27.25C68.5365 27.8333 67.4323 28.3281 66.1094 28.7344C64.7865 29.1302 63.3177 29.3281 61.7031 29.3281Z" fill="#E17033"/>
<path d="M27.1152 2.96114C36.6951 2.96114 40.6532 8.18904 40.6533 17.7688C40.6533 27.3487 36.6952 33.0002 27.1152 33.0002C26.3991 33.0002 25.6934 32.9546 25 32.8703V33.0002H5.13672L0 21.9504V16.0002H9.77344C9.77118 15.885 9.76953 15.7693 9.76953 15.6535C9.76969 6.07378 17.5354 2.96115 27.1152 2.96114Z" fill="#FDC668"/>
<path d="M0 16.0769V21.1538L6.34614 17.7692V16.0769H0Z" fill="#E17033"/>
<path d="M19.923 0L41.0768 4.23076L35.9999 17.7692H24.5769L19.923 0Z" fill="#E17033"/>
</svg>
